<mxfile modified="2023-02-22T14:06:32.530Z" host="app.diagrams.net" agent="5.0 (Windows NT 10.0; Win64; x64) AppleWebKit/537.36 (KHTML, like Gecko) Chrome/110.0.0.0 Safari/537.36 Edg/110.0.1587.46" etag="oH7rSpSQQjXASxc5H-bk" version="20.8.20" type="github">
  <diagram id="l8hXMBHkgcEJcSW0mbfh" name="Page-1">
    <mxGraphModel dx="1530" dy="963" grid="1" gridSize="10" guides="1" tooltips="1" connect="1" arrows="1" fold="1" page="1" pageScale="1" pageWidth="1169" pageHeight="827" math="0" shadow="0">
      <root>
        <mxCell id="0" />
        <mxCell id="1" parent="0" />
        <mxCell id="gsiroYOshq6ju-U6o-tO-1" value="" style="shape=datastore;whiteSpace=wrap;html=1;fillColor=#4C7DEF;strokeColor=#000000;fontColor=#ffffff;strokeWidth=1;" vertex="1" parent="1">
          <mxGeometry x="50" y="415" width="70" height="50" as="geometry" />
        </mxCell>
        <mxCell id="gsiroYOshq6ju-U6o-tO-2" value="" style="shape=datastore;whiteSpace=wrap;html=1;fillColor=#4C7DEF;strokeColor=#000000;fontColor=#ffffff;strokeWidth=1;" vertex="1" parent="1">
          <mxGeometry x="90" y="439" width="70" height="50" as="geometry" />
        </mxCell>
        <mxCell id="gsiroYOshq6ju-U6o-tO-3" value="" style="shape=datastore;whiteSpace=wrap;html=1;fillColor=#4C7DEF;strokeColor=#000000;fontColor=#ffffff;strokeWidth=1;" vertex="1" parent="1">
          <mxGeometry x="30" y="455" width="70" height="50" as="geometry" />
        </mxCell>
        <mxCell id="gsiroYOshq6ju-U6o-tO-4" value="&lt;b&gt;&lt;font color=&quot;#ffffff&quot;&gt;Systems of Record&lt;/font&gt;&lt;/b&gt;" style="text;strokeColor=none;align=center;fillColor=none;html=1;verticalAlign=middle;whiteSpace=wrap;rounded=0;" vertex="1" parent="1">
          <mxGeometry x="60" y="439" width="80" height="40" as="geometry" />
        </mxCell>
        <mxCell id="gsiroYOshq6ju-U6o-tO-28" style="edgeStyle=none;rounded=0;orthogonalLoop=1;jettySize=auto;html=1;exitX=1;exitY=0.5;exitDx=0;exitDy=0;exitPerimeter=0;entryX=0;entryY=0.5;entryDx=0;entryDy=0;entryPerimeter=0;fontSize=9;fontColor=#000000;endArrow=classic;endFill=1;" edge="1" parent="1" source="gsiroYOshq6ju-U6o-tO-6" target="gsiroYOshq6ju-U6o-tO-15">
          <mxGeometry relative="1" as="geometry" />
        </mxCell>
        <mxCell id="gsiroYOshq6ju-U6o-tO-6" value="Viaduct" style="sketch=0;points=[[0,0,0],[0.25,0,0],[0.5,0,0],[0.75,0,0],[1,0,0],[0,1,0],[0.25,1,0],[0.5,1,0],[0.75,1,0],[1,1,0],[0,0.25,0],[0,0.5,0],[0,0.75,0],[1,0.25,0],[1,0.5,0],[1,0.75,0]];outlineConnect=0;fontColor=#232F3E;gradientColor=#FF4F8B;gradientDirection=north;fillColor=#BC1356;strokeColor=#ffffff;dashed=0;verticalLabelPosition=bottom;verticalAlign=top;align=center;html=1;fontSize=12;fontStyle=0;aspect=fixed;shape=mxgraph.aws4.resourceIcon;resIcon=mxgraph.aws4.application_integration;strokeWidth=1;" vertex="1" parent="1">
          <mxGeometry x="362" y="415" width="78" height="78" as="geometry" />
        </mxCell>
        <mxCell id="gsiroYOshq6ju-U6o-tO-8" style="edgeStyle=orthogonalEdgeStyle;rounded=0;orthogonalLoop=1;jettySize=auto;html=1;exitX=1;exitY=0.5;exitDx=0;exitDy=0;entryX=0;entryY=0.5;entryDx=0;entryDy=0;entryPerimeter=0;fontSize=9;fontColor=#000000;" edge="1" parent="1" target="gsiroYOshq6ju-U6o-tO-6">
          <mxGeometry relative="1" as="geometry">
            <mxPoint x="312" y="454" as="sourcePoint" />
          </mxGeometry>
        </mxCell>
        <mxCell id="gsiroYOshq6ju-U6o-tO-9" style="edgeStyle=orthogonalEdgeStyle;rounded=0;orthogonalLoop=1;jettySize=auto;html=1;exitX=0;exitY=0.5;exitDx=0;exitDy=0;entryX=1;entryY=0.3;entryDx=0;entryDy=0;fontSize=9;fontColor=#000000;" edge="1" parent="1" source="gsiroYOshq6ju-U6o-tO-7" target="gsiroYOshq6ju-U6o-tO-2">
          <mxGeometry relative="1" as="geometry" />
        </mxCell>
        <mxCell id="gsiroYOshq6ju-U6o-tO-7" value="&lt;font color=&quot;#000000&quot;&gt;First Mile Connectivity&lt;br&gt;&lt;font style=&quot;font-size: 9px;&quot;&gt;FHIR&amp;nbsp; | HL7 | XML | JSON |&lt;br&gt;&amp;nbsp;HTTP | DB | CSV&lt;/font&gt;&lt;br&gt;&lt;/font&gt;" style="text;strokeColor=none;align=center;fillColor=none;html=1;verticalAlign=middle;whiteSpace=wrap;rounded=0;fontColor=#FFFFFF;" vertex="1" parent="1">
          <mxGeometry x="199" y="439" width="130" height="30" as="geometry" />
        </mxCell>
        <mxCell id="gsiroYOshq6ju-U6o-tO-10" value="" style="shape=image;verticalLabelPosition=bottom;labelBackgroundColor=default;verticalAlign=top;aspect=fixed;imageAspect=0;image=data:image/png,iVBORw0KGgoAAAANSUhEUgAAAR8AAADrCAYAAABQI5L2AAAAAXNSR0IArs4c6QAAAARnQU1BAACxjwv8YQUAAAAJcEhZcwAADsMAAA7DAcdvqGQAABTQSURBVHhe7d15jBTF38fx4nKDICIIeOAjiArG4M0hIpFdFUEDPlFBBQUTUbxBYsRENEb/AFFR/MUz8YgHl48KigoLAQ+IcogiBEXkkkMx4C6CF0c//a1fF/T09sz0zM5OzUy/X0kFtmdqu7qn+9PVVbMz9RyXAoA8q+/9CwB5RfgAsILwAWAF4QPACsIHgBWEDwArCB8AVhA+AKyodfgMGzZMdejQQW3dutVbgtqYNWuWatCggZo5c6ay/f7Pb775RrVu3VpVVFSoXbt2eUsL0+7du9Wll16qhg4dqg4cOOAtRSGj54OkmjRpoo488khVr149bwmQO4QPkjrllFPUjz/+qObOnauaNWvmLQVyg/ABYIW18JEr6q233qpatWqlu/VSLrvsMj3m4R/rkDGliy++WP3xxx/ekkRPPfWU/h3Lli3zliRavny56tSpk/r666+9JcmFtalr16412uQXdTv8pE6/fv1U/fr1E+qsWbMm5ThPsN7RRx+thg8fruulY8ZEZF+mGr+Rdss4j+zPVOMoH3/8serevXvCNvTo0UO/Hv7Xatu2bboH9cQTTyTdNv86/c+Rdcj2+vftqaeeWmMd2ZBt69Onj26X7L8RI0bosTazHnk9fvjhB90eee4zzzyjTjvttIPbK+14++23Q7dJ2n355ZfXaPeTTz4Zuu/9bZHH77vvPr0//HVlXcHXINt6fmvXrlVXXHFFwjF18803H9x2w78ueczUueGGG9T+/fu9Z2XGSvhMnTpVH6gyprBu3Tq9kXIw3XTTTTpsRo8efXDDr7nmGvXtt9+GnmCyQ+SF3rFjh5o/f37ogSDLTzjhBHXyySd7S8Ila5O0JdgmI5PtMOTE6dixow7E6urqhDr9+/dPOtBs6kkYmnobNmzQYzIXXHBBjRM3qGnTpuqee+7R+2PBggVJn/vOO++oM844QwdGMtKWG2+8UT344IP6wDPbMHbsWLVkyZKcDE5LIEnoyWD3ihUr9DqkSAiMGzdO3XHHHTkZWF66dKne77169VL79u3T65CQl9/ds2dP/RpLYK9cuVK9//77B7f30UcfVSNHjtQno78d0m557cvLy2u0+/HHH1d33nln0pNVgvqSSy7Rj8tgv6n72GOPqVGjRunH5LUPyrbexIkT9XF47rnnqqqqKl1HjqkWLVqoCy+8UO8bWeYnywYMGKCuu+46vb/eeOMNHdpZcX95rbgHiHPSSSc5W7Zs8Zak5vZAHDddnQkTJjjui+YtPUQed68YBx93D2rHffFDn//hhx/q3zVw4EDdhs2bN3uP/JfUdXd80nUZwXUGyePuQZXwWJQ6wcfT1XF7afpxeVlmzJhx8DlmuX+Zn3tFdTp06FBj+4PM/nCDw3EPVG/pIcH1hD1/69atjhvkafepEeX58jrKet0D++BzZN3uSaX/H2Se7wZdwvNTbVuQPN/t1Tnu1d5xQ6VG2/yPu1d3xz3RvEcOcUM4tB2p2u32TBKeL/zrcgMq6Wsjdf2P++uNHz8+cj0hy9u0aRO67UK2TV63TZs26Z/963rvvfci7eN08t7zkSvAmWeeqW9V3A3xlh5y9tln6672888/r6fv5Yrdt29fNXv2bN3T8Zs+fbp+7v3336+vvO7JnZDUn376qb7t6t27d+i6DGmTXO1vueWWlG3yPxaljnS9X3jhhYNvQ5g0aVLKOmeddZauE3zMrOuiiy4KrSdXIVk+efLkGlcqP9P7kd6i7Jfgc9Otx89c1euKtPWYY47xfkp0zjnnqObNmyft7WZCeihh2yvrl1svWX7VVVfpW4wgc1y5F15vSfp2S081WbvdC6h+LcPWJcfGmDFj1EsvvZSwPpFNPTkWO3funPS1vvbaa/XvmzJlSkLPzuyvsHVlKq/hI93DhQsXquOPP16/SMnIrZZ03X/55Rf9s7zIcuvlv10wv+vqq68+GA5yy+Bnwkle9GTM7znuuOPUEUcc4S1NLWodaZvZDqnzxRdf6Dqptl3q+A8GU09OhGTrOvbYY/UtwnfffZf2ZDQngASN/7lR1iPksfbt26s333xT71u5LZHblGIlx2Kq7ZUTW25Lwk5Qt+eg92W6sbqo5PZZXstk5DyQ4yl4kZV6clwlE6xnjl+3J5PymJLfK7eb/nVlcp6kk9fwMSRxU5ENlBdbegyy4WHhYq7ycjLJcyWwZIeaXobZwXIyRyFX/Eylq2MOCP8VR+qEHciGnAwtW7b0fjpEBhPlaiN1w8prr72m3NuuGr3DIDmobrvtNrVo0SK9jwyzP00vKhkJznfffVf33ubMmaOvkDKwKXVkTCrZIGw2JNj8g7ymyH4t5MDLtt1yXsjzMpVtPblj8A+yB8urr74a6ZjKlpXwkSt0KiZ0TAgJf7iYgWaZoTAnuAkhcxKZlDfL64LceqRiglACxUh3uyJBJQPoQRMmTNDdX6mbrMybNy/S+3GCt2kSQnKb69+fqUgAye2ktEfqTps2TYfRzp071eDBg9UHH3ygf29tyGDo9ddfrwex93uDvKbIfk01IG6Tabd/MD5qu6P0XMNkW2/8+PE12hgsckxJ764u5DV8TFdOTrBUaSq3S3IS+e+dTYhIqMjV4+eff9b3nyZYzBVdxobkNufpp5+OdDKZNn3yySd63CgKU0cOplR1pKdmtkPqyK2RCc9kpI686Iapl0n70jG/04xHyT4V6Xo9YWTb5MLw4osv6mCVWcXgNohUoRt8vrm4DBkyRPes6urikWvSbnmdsm23XFz9vdEgGSuS4yl4QfX3+MME65njV3quuTqmspH3no8MeMr4jRysYQejDIR+9NFHOkj8wWF2mIxVzJgxQ0+fB68icm8roSTTncFwSkXaJCeHDMqFtUnC7vPPP094LF0d2Q5phz8A77777pR1ZJpU6gQfS7cuOegzvQ2R3ynjALI+CWp5y4Ds49ow40H+fW6CLnibZ8gyOXnCtisZCUt5a0OxSddueUx6o/4BXkOODXmLgfQw/T1pkU09ORalxyTHVFg9c0xl8rpkzP3ltZLpVLswU+SjRo1y3BNAL3MT2JkyZcrB5e4O0cv93BdPT21Ks2fOnBk6PSrTre7B77jB41RXV3uPpOdft2mTMMtlutW/XGSzHTItLu0LqyPbNnr0aF03OK1uppelnnuV85b+d8q0W7duTpcuXdJOtQcNGzZMt6Vly5YJ09yG2Z/+6WtZX6dOnWq0Q577yCOP6LYHf5c8T6ZtKyoqnO+//95b6jjuRUa33Q2+GvVke+vXr+889NBDB19HWYd7W+N07NhRtzs47ZzNVHuq55vpZvdC5i1JJNvlXgAT2iHtbtCgQY12uwGv91uw3cK0RV5DOZdk3/rPp6lTp+rpcjmmq6qqvKXZ1zOkrfL4yJEjE+rJa9y9e3f9e822m3Ule9tBNnLS81m/fr1OVXfHJi3+cQCZTpYr4Z49e/RsgjwuV00Z4JKBU3knqCwLkp6OTNNLnbCxHBmLkCu6LJd/MxmVHzRoUI02SXEPIj0t+frrr9f4fdlsx7333qvfISp15F7aX0dmm2TMJFhHyLqkhyD1zKC1FGn3wIED9b158IqYjplZk8F8GdQPW2+QTN3KmwzdEEloR7t27XRvU9oYnB2S3o/0BGUd0gsydaQXK2M6DzzwQMLzhWyve3Lo22iZVjfr2LRpk34jptzeFSJptxzrwXbLm/fkTYqp2i2D1NI7kkFg2c9mP8n4kYwlVVZWho6/ZFvPHFN//fVXQj05nuTYkL/pa9u2rffs3ON7uwDL5BZH3ksk42evvPJK5HcMZ1uvUFiZ7QIAwgeAFYQPACsY8wFgBT0fAFYQPgCsIHwAWEH4ALCC8AFgBeEDwIo6n2qXz3hZvHix9xOAUtSlS5fQD8FLScKnLs2fP1//Ja+sikKhlGaprKys8akI6XDbBcAKwgeAFYQPACsIHwBWED4ArCB8AFhB+ACwgvABYAXhA8AKwgeAFYQPACsIHwBWED4ArCB8AFhB+ACwgvABYAXhA8AKwgex16ZNG7Vs2TL1+++/qy1btqhZs2apQYMGqfr1a3d69O3bV02fPl1t3LhRVVVVqVWrVqmJEyeq9u3bq3r16nnPykyLFi3U2LFj1dKlS9WOHTvUtm3b1Jw5c9TQoUNVw4YNvWcVCe8TDesMH6NKKeTSv39/xw0G72hNJMdu69atQ+ulKk2aNHHc0En6saJ///23M3z4cMcNt9D6yUpFRYWzfft277fU9NVXXzlt27YNrVvXJZuPUSV8KLEt5eXlzj///OMdqeHkhD788MND64cVCZSZM2dGOhEHDx4cOYC6du3q7Nmzx6uZ3MqVK53mzZuH/o66LIQPhRKxHHbYYc7atWu9ozS1MWPGRA6JIUOGOPv27fNqpubeNjnurVLo7/EXWffy5csjn9zjxo3LuFdV28IHyAMR9evXT7Vr1877KbURI0ZEHqO5/fbbI48VyfhNFL169VKdO3eO3Ab3lk41atTI+6lwET6IpZ49e0Y+mU888URd0ikrK1PnnXde1oPJyWTSViGhdvrpp+e8HblG+CCW5AvuMj2h0z0/ynOyEbWH5JfxF/hZQPgglrZv3y7jnd5P6f32229pny9T3wcOHPB+yh1Zd6Zk+wod4YNY+uyzzyKHz7p169TmzZu9n5L7999/1ZdffplRqEWRSVuFBM/q1atz3o5cI3wQS7Nnz1Zr1qyJdIJOmjQp8on87LPPRu79/Prrr97/Ulu0aJF+U2HUNjz33HNq37593k8FzN2gOsVUO6VQy/nnn+/8+eef3pEaTo7fsrKy0PrJyuTJk9NOO+/fv9+58sorI58bnTt3dqqrq73ayS1ZssRp2rRp6O+oy8L7fCiUDEvv3r2dbdu2eUdrohkzZmT1hj0Jq5dfflkHTJhdu3Y5AwcOzPi86Natm7Nx40bvt9QkAdCqVavQunVdCB8KJYvSrFkzZ968ec769eudVatWOW+99ZbTp0+fWh+3PXr00CG0YsUKZ8OGDc7ChQudhx9+2GnTpk3o86MU+dONu+66y5k7d67z008/OatXr3amTZvmDBgwwOp5RvhQKBQrhXc4AygahA8AKwgfAFYQPgCsIHwAWEH4ALCC8AFgBeEDwArCB4AVhA8AKwgfAFYQPgCsIHwAWEH4ALCC8AFgBeEDwArCB4AV9eQTxbz/14kFCxao8vLyyJ+8n45860CzZs28nwBkY/fu3apv3745+5aLyspKVVFRkdGXJhZd+MgXs2XzDY4ADqmqqlKtW7dWe/fu9ZbUTjbhw20XACsIHwBWED4ArCB8AFhB+ACwgvCBdUuXLfX+hzghfABYQfgAsILwgXXnnXue9z/ECeEDwArCB4AVhA+sY7YrnggfAFaUZPg0aNBA/3UtJbzs37/f21PFpWHDhqHbU0olVx9xUQzo+QCwgvCBdUy1xxPhA8AKwgeAFYQPrGOqPZ4IHwBWED4xZKasi3XKHaWB8IkheS+JfJtIWVkZAQRrCJ8YkxCSALLdC2KqPZ4In5jz94K4FUM+ET7QuBVDvhE+SGDjVoyp9ngqyfCRk0au4pTwIn94m0qh9oJMu0q5yExkXNDzQVI2ekGID8IHKeWjF8RsVzwRPoiEXhByjfBBZP5eECGE2iJ8kLFc34ox2xVPhA+yxq0YaoPwQa3kY0AapSl24cOHy6cv2YRIIfWCGjVqVGObSqHIPi4l9HyQM9n2gphqjyfCBznHWBCiIHxQJxgLQjqED+pUlF4QU+3xRPigzvl7QdyKwSB8kDfcisGP8EHeMSANQfjACn8v6OyzzvaWIk4IH1hFLyi+CB9Yx1hQPBE+sM5MtdMLihfCBwXF3wsihEpb7MJHDmY5uCnJS7oPmM+H2tyK7d27t8Y2lUIptQ+Xp+eDgsatWOkifGBdur9q9/eC5P8oDYQPioYET+PGjXUviBAqfoQPiooZz5EQIoCKG+ED67L5q3YJIXpBxY3wQdGiF1TcCB8UPXpBxYnwQUnw94IIoeJA+ORBKX5jRi7fc5PLD5DP5FasVL/lQvZBMSB8UJK4FSt8hA+sq6vPcM6kF4T8I3xQ8ugFFSbCB7FAL6jwED6IFXpBhYPwgXX5/rpk0wsqtY+oKDaEDwArCB8AVhA+sI6vS44nwgeAFYRPHpTi50YXwuc815YZeC61In82UgwIHwBWED6wLt9T7SgMhA8AKwgfAFYQPrCOqfZ4InwAWEH4ALCC8AFgBeED65hqjyfCB4AVsQ2fUvxGiVyXXH5DRSEq1m+vkD8LKQX0fGAdU+3xRPgAsILwAWAF4QPACsIH1jHVHk+EDwArCB8kJV8t45/iLfWpd+QX4YOk5Ev1/B/PWVZWVidhxFR7PBE+iCxfYYR4IHyQNcIItUH4IGeyDSNmu+IptuEjJ4L/RKHULLX9epxC7xkV61fnFMtX46RDzwd5w20a/AgfWGPCaMnSJYRRDBE+KBj0jOKF8EHBShdG8jiKF+GDohEMo8aNGxNGRYzwgXXZTrUHZ6sIo+JC+BSZ4N9b2SqFOP5iM4wK6SNZi+VjVgkflCx6RoWN8IF1+frD0lRhRBDlH+GD2PKHEb2i/CN8ABe3aPlH+AAhCKO6R/jAumL4q3bCKPcIHyALwTCSt0AgM4QPACsIH1jHZzjHE+EDwArCB4AVhA8AKwifIiNTuv5ZFlultp/v7FcKHyAfnP2yWYrlM54JHwBWED4ArCB8YB1T7fFE+ACwgvCBdXxjaTwRPgCsIHwAWEH4ALCC8AFgBeEDwArCB4AV9Rz5Y5A6tGDBAlVeXq7/5iQXtm7dqo466ijvJwDZqK6uVm3bts3Zx79WVlaqiooK/ZGykUn41KX58+c7boMkeSgUSokWN3ycAwcOeGd9NNx2AbCC8AFgBeEDwArCB4AVhA8AKwgfAFYQPgCsIHwAWEH4ALCC8AFgBeEDwArCB4AVhA8AKwgfAFYQPgCsIHwAWEH4ALCizj9GdefOnWrx4sXeTwBKUZcuXVTLli29n6Kp8/ABgDDcdgGwgvABYAXhAyArJ131H/U/V05S+/Yf8JZkhjEfAJFJ4JiwWfd/d6qGDbLvv+Q9fNr977Nq3bt3qvqZfLkYAKtM6NQ2cA5R6v8ByEw/42Q/Ga8AAAAASUVORK5CYII=;" vertex="1" parent="1">
          <mxGeometry x="297.5" y="195.51" width="207" height="169.49" as="geometry" />
        </mxCell>
        <mxCell id="gsiroYOshq6ju-U6o-tO-11" value="" style="endArrow=none;html=1;rounded=0;fontSize=9;fontColor=#000000;entryX=0;entryY=1;entryDx=0;entryDy=0;exitX=0;exitY=0;exitDx=0;exitDy=0;exitPerimeter=0;dashed=1;" edge="1" parent="1" source="gsiroYOshq6ju-U6o-tO-6" target="gsiroYOshq6ju-U6o-tO-10">
          <mxGeometry width="50" height="50" relative="1" as="geometry">
            <mxPoint x="302" y="440" as="sourcePoint" />
            <mxPoint x="352" y="390" as="targetPoint" />
          </mxGeometry>
        </mxCell>
        <mxCell id="gsiroYOshq6ju-U6o-tO-13" value="" style="endArrow=none;html=1;rounded=0;fontSize=9;fontColor=#000000;entryX=1;entryY=1;entryDx=0;entryDy=0;exitX=1;exitY=0;exitDx=0;exitDy=0;exitPerimeter=0;dashed=1;" edge="1" parent="1" source="gsiroYOshq6ju-U6o-tO-6" target="gsiroYOshq6ju-U6o-tO-10">
          <mxGeometry width="50" height="50" relative="1" as="geometry">
            <mxPoint x="537" y="439" as="sourcePoint" />
            <mxPoint x="472" y="389" as="targetPoint" />
          </mxGeometry>
        </mxCell>
        <mxCell id="gsiroYOshq6ju-U6o-tO-24" value="" style="swimlane;startSize=0;strokeColor=#000000;strokeWidth=1;fontSize=9;fontColor=#000000;fillColor=default;" vertex="1" parent="1">
          <mxGeometry x="580" y="320" width="350" height="300" as="geometry" />
        </mxCell>
        <mxCell id="gsiroYOshq6ju-U6o-tO-16" value="" style="sketch=0;points=[[0,0,0],[0.25,0,0],[0.5,0,0],[0.75,0,0],[1,0,0],[0,1,0],[0.25,1,0],[0.5,1,0],[0.75,1,0],[1,1,0],[0,0.25,0],[0,0.5,0],[0,0.75,0],[1,0.25,0],[1,0.5,0],[1,0.75,0]];outlineConnect=0;fontColor=#232F3E;gradientColor=#F78E04;gradientDirection=north;fillColor=#D05C17;strokeColor=#ffffff;dashed=0;verticalLabelPosition=bottom;verticalAlign=top;align=center;html=1;fontSize=12;fontStyle=0;aspect=fixed;shape=mxgraph.aws4.resourceIcon;resIcon=mxgraph.aws4.eks_cloud;strokeWidth=1;" vertex="1" parent="gsiroYOshq6ju-U6o-tO-24">
          <mxGeometry width="48" height="48" as="geometry" />
        </mxCell>
        <mxCell id="gsiroYOshq6ju-U6o-tO-25" style="rounded=0;orthogonalLoop=1;jettySize=auto;html=1;entryX=0.5;entryY=0;entryDx=0;entryDy=0;entryPerimeter=0;fontSize=9;fontColor=#000000;endArrow=classic;endFill=1;" edge="1" parent="gsiroYOshq6ju-U6o-tO-24" target="gsiroYOshq6ju-U6o-tO-19">
          <mxGeometry relative="1" as="geometry">
            <mxPoint x="109" y="140" as="sourcePoint" />
          </mxGeometry>
        </mxCell>
        <mxCell id="gsiroYOshq6ju-U6o-tO-15" value="Picasso" style="sketch=0;points=[[0,0,0],[0.25,0,0],[0.5,0,0],[0.75,0,0],[1,0,0],[0,1,0],[0.25,1,0],[0.5,1,0],[0.75,1,0],[1,1,0],[0,0.25,0],[0,0.5,0],[0,0.75,0],[1,0.25,0],[1,0.5,0],[1,0.75,0]];outlineConnect=0;fontColor=#232F3E;gradientColor=#FF4F8B;gradientDirection=north;fillColor=#BC1356;strokeColor=#ffffff;dashed=0;verticalLabelPosition=bottom;verticalAlign=top;align=center;html=1;fontSize=12;fontStyle=0;aspect=fixed;shape=mxgraph.aws4.resourceIcon;resIcon=mxgraph.aws4.application_integration;strokeWidth=1;" vertex="1" parent="gsiroYOshq6ju-U6o-tO-24">
          <mxGeometry x="80" y="45" width="58" height="58" as="geometry" />
        </mxCell>
        <mxCell id="gsiroYOshq6ju-U6o-tO-17" value="FHIR CDR" style="sketch=0;points=[[0,0,0],[0.25,0,0],[0.5,0,0],[0.75,0,0],[1,0,0],[0,1,0],[0.25,1,0],[0.5,1,0],[0.75,1,0],[1,1,0],[0,0.25,0],[0,0.5,0],[0,0.75,0],[1,0.25,0],[1,0.5,0],[1,0.75,0]];outlineConnect=0;fontColor=#232F3E;gradientColor=#4D72F3;gradientDirection=north;fillColor=#3334B9;strokeColor=#ffffff;dashed=0;verticalLabelPosition=bottom;verticalAlign=top;align=center;html=1;fontSize=12;fontStyle=0;aspect=fixed;shape=mxgraph.aws4.resourceIcon;resIcon=mxgraph.aws4.documentdb_with_mongodb_compatibility;strokeWidth=1;" vertex="1" parent="gsiroYOshq6ju-U6o-tO-24">
          <mxGeometry x="230" y="45" width="58" height="58" as="geometry" />
        </mxCell>
        <mxCell id="gsiroYOshq6ju-U6o-tO-18" value="FHIR" style="edgeStyle=none;rounded=0;orthogonalLoop=1;jettySize=auto;html=1;exitX=1;exitY=0.5;exitDx=0;exitDy=0;exitPerimeter=0;fontSize=9;fontColor=#000000;" edge="1" parent="gsiroYOshq6ju-U6o-tO-24" source="gsiroYOshq6ju-U6o-tO-15" target="gsiroYOshq6ju-U6o-tO-17">
          <mxGeometry relative="1" as="geometry" />
        </mxCell>
        <mxCell id="gsiroYOshq6ju-U6o-tO-19" value="Terminology" style="sketch=0;points=[[0,0,0],[0.25,0,0],[0.5,0,0],[0.75,0,0],[1,0,0],[0,1,0],[0.25,1,0],[0.5,1,0],[0.75,1,0],[1,1,0],[0,0.25,0],[0,0.5,0],[0,0.75,0],[1,0.25,0],[1,0.5,0],[1,0.75,0]];outlineConnect=0;fontColor=#232F3E;gradientColor=#F78E04;gradientDirection=north;fillColor=#D05C17;strokeColor=#ffffff;dashed=0;verticalLabelPosition=bottom;verticalAlign=top;align=center;html=1;fontSize=12;fontStyle=0;aspect=fixed;shape=mxgraph.aws4.resourceIcon;resIcon=mxgraph.aws4.eks;strokeWidth=1;" vertex="1" parent="gsiroYOshq6ju-U6o-tO-24">
          <mxGeometry x="80" y="170" width="58" height="58" as="geometry" />
        </mxCell>
        <mxCell id="gsiroYOshq6ju-U6o-tO-26" style="rounded=0;orthogonalLoop=1;jettySize=auto;html=1;fontSize=9;fontColor=#000000;endArrow=classic;endFill=1;" edge="1" parent="1" target="gsiroYOshq6ju-U6o-tO-15">
          <mxGeometry relative="1" as="geometry">
            <mxPoint x="689" y="460" as="sourcePoint" />
            <mxPoint x="699" y="500" as="targetPoint" />
          </mxGeometry>
        </mxCell>
      </root>
    </mxGraphModel>
  </diagram>
</mxfile>
